<svg height="590" width="720" xmlns="http://www.w3.org/2000/svg">
<rect height="590" fill="#555" width="720"></rect>
<text fill="#7f7" font-family="Courier New" font-size="12" xml:space="preserve">
<tspan x="10" y="26">19 megabytes installed</tspan>
<tspan x="10" y="42"></tspan>
<tspan x="10" y="58">node_modules</tspan>
<tspan x="10" y="74">├─┬ griddle-react@1.3.1 </tspan>
<tspan x="10" y="90">│ ├── immutable@3.8.1 </tspan>
<tspan x="10" y="106">│ ├── lodash@4.17.4 </tspan>
<tspan x="10" y="122">│ ├── max-safe-integer@1.0.1 </tspan>
<tspan x="10" y="138">│ ├── UNMET PEER DEPENDENCY react@^0.14.0 || ^15.0.0-0 || ^16.0.0-0</tspan>
<tspan x="10" y="154">│ ├─┬ react-redux@5.0.4 </tspan>
<tspan x="10" y="170">│ │ ├─┬ create-react-class@15.5.2 </tspan>
<tspan x="10" y="186">│ │ │ └── object-assign@4.1.1 </tspan>
<tspan x="10" y="202">│ │ ├── hoist-non-react-statics@1.2.0 </tspan>
<tspan x="10" y="218">│ │ ├── invariant@2.2.2 </tspan>
<tspan x="10" y="234">│ │ ├── lodash-es@4.17.4 </tspan>
<tspan x="10" y="250">│ │ ├─┬ loose-envify@1.3.1 </tspan>
<tspan x="10" y="266">│ │ │ └── js-tokens@3.0.1 </tspan>
<tspan x="10" y="282">│ │ └── prop-types@15.5.8 </tspan>
<tspan x="10" y="298">│ ├─┬ recompose@0.21.2 </tspan>
<tspan x="10" y="314">│ │ ├── change-emitter@0.1.6 </tspan>
<tspan x="10" y="330">│ │ ├─┬ fbjs@0.8.12 </tspan>
<tspan x="10" y="346">│ │ │ ├── core-js@1.2.7 </tspan>
<tspan x="10" y="362">│ │ │ ├─┬ isomorphic-fetch@2.2.1 </tspan>
<tspan x="10" y="378">│ │ │ │ ├─┬ node-fetch@1.6.3 </tspan>
<tspan x="10" y="394">│ │ │ │ │ ├─┬ encoding@0.1.12 </tspan>
<tspan x="10" y="410">│ │ │ │ │ │ └── iconv-lite@0.4.15 </tspan>
<tspan x="10" y="426">│ │ │ │ │ └── is-stream@1.1.0 </tspan>
<tspan x="10" y="442">│ │ │ │ └── whatwg-fetch@2.0.3 </tspan>
<tspan x="10" y="458">│ │ │ ├─┬ promise@7.1.1 </tspan>
<tspan x="10" y="474">│ │ │ │ └── asap@2.0.5 </tspan>
<tspan x="10" y="490">│ │ │ ├── setimmediate@1.0.5 </tspan>
<tspan x="10" y="506">│ │ │ └── ua-parser-js@0.7.12 </tspan>
<tspan x="10" y="522">│ │ └── symbol-observable@1.0.4 </tspan>
<tspan x="10" y="538">│ ├── redux@3.6.0 </tspan>
<tspan x="10" y="554">│ └── reselect@2.5.4 </tspan>
<tspan x="10" y="570">└── UNMET PEER DEPENDENCY react@&gt;=15</tspan>
</text>
</svg>
